<svg width="2193" height="350" viewBox="0 0 2193 350" fill="none" xmlns="http://www.w3.org/2000/svg">
<path d="M137.311 328.421C207.624 328.421 264.623 271.396 264.623 201.053C264.623 130.709 207.624 73.6842 137.311 73.6842C66.9993 73.6842 10 130.709 10 201.053C10 271.396 66.9993 328.421 137.311 328.421Z" stroke="#00CA9B" stroke-width="20"/>
<path d="M253.049 218.421C310.577 218.421 357.213 171.764 357.213 114.211C357.213 56.6566 310.577 10 253.049 10C195.521 10 148.885 56.6566 148.885 114.211C148.885 171.764 195.521 218.421 253.049 218.421Z" stroke="#00CA9B" stroke-width="20"/>
<path d="M281.984 340C326.728 340 363 303.711 363 258.947C363 214.183 326.728 177.895 281.984 177.895C237.24 177.895 200.967 214.183 200.967 258.947C200.967 303.711 237.24 340 281.984 340Z" stroke="#00CA9B" stroke-width="20"/>
<g clip-path="url(#clip0_15_76)">
<path d="M442 282.798V66.2021H622.556V84.6458H463.446V159.209H614.514V177.495H463.446V264.354H624.921V282.798H442ZM889.055 282.798C888.003 271.027 885.111 260.413 880.381 250.955C875.65 241.391 869.552 232.932 862.089 225.575C854.729 218.218 846.267 211.913 836.702 206.658C827.134 201.299 816.989 196.885 806.266 193.417C795.543 189.949 784.452 187.426 772.994 185.85C761.535 184.168 750.234 183.328 739.09 183.328H705.503V282.798H685.79V66.2021H705.503V165.988H733.728C744.976 165.988 756.173 164.989 767.318 162.992C778.459 160.891 789.076 157.895 799.169 154.007C809.367 150.014 818.828 145.179 827.553 139.504C836.384 133.724 844.165 127.156 850.891 119.799C857.62 112.338 863.141 104.141 867.45 95.2076C871.759 86.2747 874.441 76.6063 875.491 66.2021H895.834C894.782 77.6572 892.209 88.0614 888.106 97.4146C884.112 106.663 879.172 115.018 873.286 122.479C867.397 129.941 860.827 136.509 853.573 142.184C846.319 147.754 838.96 152.588 831.497 156.687C824.033 160.68 816.727 164.043 809.579 166.776C802.428 169.403 795.964 171.4 790.182 172.766C797.435 173.922 805.267 175.709 813.676 178.126C822.194 180.438 830.656 183.591 839.066 187.584C847.581 191.473 855.834 196.307 863.824 202.087C871.812 207.762 878.963 214.488 885.27 222.265C891.682 230.041 897.043 238.922 901.352 248.906C905.664 258.889 908.344 270.187 909.396 282.798H889.055ZM984.931 66.2021V209.181C984.825 221.266 986.349 231.198 989.503 238.974C992.657 246.751 997.178 252.899 1003.06 257.418C1009.06 261.832 1016.26 264.932 1024.67 266.719C1033.18 268.4 1042.75 269.241 1053.37 269.241C1065.67 269.241 1077.7 267.77 1089.48 264.827C1101.25 261.779 1112.35 257.996 1122.75 253.477C1133.16 248.853 1142.67 243.756 1151.29 238.186C1160.02 232.616 1167.43 227.257 1173.53 222.107V66.2021H1193.55V282.798H1173.53V244.649C1166.17 249.378 1158.13 254.318 1149.4 259.467C1140.68 264.512 1131.22 269.189 1121.02 273.497C1110.92 277.701 1100.1 281.169 1088.53 283.901C1076.97 286.634 1064.72 288 1051.79 288C1037.18 288 1024.4 286.161 1013.47 282.483C1002.64 278.804 993.603 273.655 986.349 267.034C979.201 260.413 973.84 252.584 970.265 243.546C966.689 234.403 964.903 224.366 964.903 213.437V66.2021H984.931ZM1286.44 66.2021V99.4639C1291.06 95.4705 1296.21 91.2142 1301.89 86.6951C1307.56 82.1761 1313.82 78.025 1320.65 74.2417C1327.49 70.4583 1334.9 67.3056 1342.89 64.7833C1350.88 62.2611 1359.45 61 1368.59 61C1383.21 61 1396.14 64.3104 1407.38 70.9313C1418.63 77.447 1427.73 87.5885 1434.67 101.356C1441.39 95.1552 1448.33 89.5851 1455.48 84.6458C1462.63 79.6014 1469.94 75.3451 1477.4 71.8771C1484.97 68.409 1492.75 65.7292 1500.74 63.8375C1508.73 61.9458 1516.98 61 1525.5 61C1536.32 61 1546.15 62.8391 1554.98 66.5174C1563.92 70.1956 1571.49 75.24 1577.69 81.6507C1583.89 88.0614 1588.68 95.6281 1592.04 104.351C1595.51 112.968 1597.24 122.216 1597.24 132.095V282.798H1577.53V137.14C1577.53 128.102 1576.43 120.062 1574.22 113.021C1572.12 105.875 1568.75 99.8316 1564.13 94.8924C1559.61 89.9531 1553.77 86.2222 1546.62 83.7C1539.58 81.0727 1531.12 79.759 1521.24 79.759C1513.35 79.759 1505.52 80.915 1497.74 83.2271C1490.07 85.434 1482.71 88.4292 1475.67 92.2125C1468.62 95.8907 1462.05 100.094 1455.95 104.824C1449.85 109.553 1444.49 114.44 1439.87 119.484C1440.39 122.427 1440.66 124.949 1440.66 127.051C1440.76 129.152 1440.81 131.675 1440.81 134.617V282.798H1421.1V137.14C1421.1 126.42 1419.68 117.435 1416.85 110.183C1414.01 102.827 1410.07 96.8892 1405.02 92.3701C1399.97 87.8511 1393.98 84.6458 1387.04 82.7542C1380.21 80.7574 1372.74 79.759 1364.65 79.759C1356.98 79.759 1349.35 81.0727 1341.78 83.7C1334.32 86.3274 1327.17 89.7427 1320.34 93.9465C1313.51 98.1503 1307.2 102.879 1301.42 108.134C1295.63 113.284 1290.64 118.433 1286.44 123.583V282.798H1266.72V66.2021H1286.44ZM1887.55 271.448C1878.72 274.18 1870.52 276.545 1862.95 278.542C1855.38 280.433 1847.92 281.957 1840.56 283.113C1833.2 284.374 1825.69 285.268 1818.01 285.793C1810.44 286.424 1802.08 286.739 1792.94 286.739C1771.7 286.739 1752.52 284.164 1735.38 279.015C1718.24 273.865 1703.63 266.509 1691.54 256.945C1679.56 247.277 1670.31 235.611 1663.79 221.949C1657.27 208.287 1654.01 192.944 1654.01 175.919C1654.01 159.419 1657.11 144.286 1663.31 130.519C1669.62 116.752 1678.4 104.929 1689.65 95.05C1700.9 85.1713 1714.36 77.4995 1730.02 72.0347C1745.68 66.5699 1762.98 63.8375 1781.9 63.8375C1801.56 63.8375 1819.06 66.4648 1834.41 71.7194C1849.76 76.9741 1862.69 84.4882 1873.2 94.2618C1883.72 104.035 1891.7 115.911 1897.17 129.888C1902.64 143.76 1905.37 159.419 1905.37 176.865V181.751H1674.36C1675.51 195.203 1678.87 207.341 1684.45 218.166C1690.02 228.991 1697.9 238.186 1708.1 245.753C1718.4 253.319 1731.02 259.152 1745.94 263.251C1760.98 267.244 1778.48 269.241 1798.46 269.241C1806.97 269.241 1815.59 268.663 1824.32 267.507C1833.04 266.351 1841.4 264.827 1849.39 262.935C1857.38 260.939 1864.69 258.732 1871.31 256.315C1877.93 253.792 1883.35 251.218 1887.55 248.59V271.448ZM1885.97 164.569C1885.24 153.534 1882.77 143.025 1878.56 133.041C1874.36 122.952 1868.05 114.072 1859.64 106.4C1851.34 98.7282 1840.72 92.633 1827.79 88.1139C1814.96 83.5949 1799.56 81.3354 1781.59 81.3354C1764.66 81.3354 1749.84 83.5949 1737.11 88.1139C1724.4 92.633 1713.62 98.7282 1704.79 106.4C1695.96 113.967 1689.02 122.794 1683.97 132.883C1678.93 142.867 1675.72 153.429 1674.36 164.569H1885.97ZM2172.82 282.798V139.819C2172.82 127.839 2171.19 118.013 2167.93 110.341C2164.77 102.564 2160.2 96.4163 2154.21 91.8972C2148.32 87.3782 2141.12 84.2255 2132.6 82.4389C2124.09 80.6523 2114.52 79.759 2103.91 79.759C2091.6 79.759 2079.52 81.2829 2067.63 84.3306C2055.86 87.2732 2044.72 91.0566 2034.2 95.6806C2023.69 100.2 2014.02 105.244 2005.19 110.814C1996.36 116.384 1988.89 121.743 1982.8 126.893V282.798H1963.09V66.2021H1982.8V104.193C1990.16 99.5691 1998.25 94.7347 2007.08 89.6903C2016.02 84.5407 2025.59 79.8641 2035.78 75.6604C2046.08 71.3516 2057.07 67.831 2068.74 65.0986C2080.41 62.3662 2092.71 61 2105.64 61C2120.25 61 2132.97 62.7866 2143.8 66.3597C2154.73 69.8278 2163.78 74.8197 2170.92 81.3354C2178.18 87.7461 2183.59 95.5754 2187.17 104.824C2190.74 113.967 2192.53 124.213 2192.53 135.563V282.798H2172.82Z" fill="#00CA9B"/>
</g>
<defs>
<clipPath id="clip0_15_76">
<rect width="1751" height="227" fill="white" transform="translate(442 61)"/>
</clipPath>
</defs>
</svg>
