<svg width="630" height="590" viewBox="0 0 630 590" fill="none" xmlns="http://www.w3.org/2000/svg">
<path d="M230 560C351.503 560 450 461.503 450 340C450 218.497 351.503 120 230 120C108.497 120 10 218.497 10 340C10 461.503 108.497 560 230 560Z" stroke="#00D9B4" stroke-width="20"/>
<path d="M430 370C529.411 370 610 289.411 610 190C610 90.5887 529.411 10 430 10C330.589 10 250 90.5887 250 190C250 289.411 330.589 370 430 370Z" stroke="#00D9B4" stroke-width="20"/>
<path d="M480 580C557.32 580 620 517.32 620 440C620 362.68 557.32 300 480 300C402.68 300 340 362.68 340 440C340 517.32 402.68 580 480 580Z" stroke="#00D9B4" stroke-width="20"/>
</svg>
