<svg width="750" height="400" viewBox="0 0 750 400" fill="none" xmlns="http://www.w3.org/2000/svg">
<path d="M278.41 118C249.985 118.083 221.623 120.663 193.65 125.71C208.024 93.2822 231.503 65.7246 261.237 46.3827C290.97 27.0409 325.679 16.7468 361.15 16.75C458.84 16.75 538.66 93.6 543.93 189.98C504.33 168.06 400.38 117.98 278.41 117.98M361.15 383.26C325.699 383.189 291.026 372.869 261.307 353.542C231.588 334.214 208.092 306.706 193.65 274.33C221.621 279.388 249.985 281.955 278.41 282C400.41 282 504.33 231.91 543.93 210C538.66 306.37 458.84 383.18 361.15 383.18M141.49 241.91L174 209.45C174.346 209.105 174.756 208.833 175.207 208.647C175.658 208.462 176.142 208.368 176.63 208.37H218.45C218.819 208.374 219.179 208.486 219.485 208.693C219.791 208.9 220.029 209.192 220.169 209.533C220.31 209.874 220.347 210.249 220.276 210.612C220.205 210.974 220.029 211.307 219.77 211.57L178.84 252.49C178.379 252.919 177.824 253.233 177.22 253.406C176.615 253.58 175.978 253.609 175.36 253.49C163.93 250.95 152.88 248.08 142.3 245.02C141.988 244.925 141.705 244.75 141.479 244.514C141.254 244.278 141.093 243.987 141.013 243.67C140.932 243.354 140.935 243.022 141.02 242.706C141.106 242.391 141.271 242.103 141.5 241.87M54.75 208.37H146.8C147.175 208.373 147.541 208.486 147.853 208.694C148.165 208.903 148.409 209.198 148.555 209.544C148.7 209.89 148.742 210.271 148.673 210.64C148.605 211.009 148.43 211.349 148.17 211.62L122.06 237.72C121.805 237.979 121.482 238.16 121.128 238.243C120.774 238.326 120.404 238.308 120.06 238.19C97.5458 230.762 75.4877 222.017 54 212C53.6038 211.826 53.2795 211.521 53.0811 211.136C52.8828 210.751 52.8225 210.31 52.9103 209.887C52.9981 209.463 53.2287 209.082 53.5635 208.808C53.8984 208.533 54.3172 208.383 54.75 208.38M122 162.18L148.29 188.52C148.545 188.773 148.719 189.096 148.79 189.448C148.861 189.8 148.827 190.166 148.691 190.498C148.555 190.831 148.324 191.116 148.027 191.317C147.729 191.518 147.379 191.627 147.02 191.63H54.33C53.9145 191.632 53.5106 191.492 53.1849 191.234C52.8592 190.976 52.631 190.615 52.5379 190.21C52.4448 189.805 52.4923 189.38 52.6726 189.006C52.853 188.632 53.1553 188.33 53.53 188.15C75.1648 178.092 97.3578 169.281 120 161.76C120.33 161.65 120.683 161.63 121.023 161.704C121.363 161.778 121.676 161.943 121.93 162.18M290.18 191.63H248.08C247.092 191.633 246.143 191.245 245.44 190.55L199.58 144.68C199.348 144.432 199.185 144.126 199.11 143.795C199.034 143.463 199.048 143.118 199.149 142.793C199.251 142.469 199.437 142.177 199.688 141.948C199.94 141.719 200.247 141.561 200.58 141.49C212.95 139.42 225.65 137.72 238.58 136.55C238.858 136.52 239.139 136.555 239.401 136.652C239.663 136.749 239.899 136.906 240.09 137.11L291.45 188.48C291.706 188.739 291.88 189.068 291.95 189.426C292.019 189.784 291.982 190.154 291.842 190.49C291.702 190.827 291.466 191.114 291.163 191.317C290.86 191.52 290.504 191.629 290.14 191.63M264.55 137.86C264.369 137.577 264.266 137.252 264.252 136.916C264.239 136.58 264.315 136.247 264.473 135.951C264.631 135.655 264.865 135.406 265.151 135.23C265.437 135.054 265.764 134.957 266.1 134.95C267.61 134.85 278.33 134.71 278.33 134.71C289.1 134.71 299.68 135.23 310.13 135.98C310.59 136.023 311.021 136.225 311.35 136.55L363.18 188.43C363.448 188.688 363.633 189.021 363.71 189.386C363.787 189.751 363.753 190.13 363.612 190.475C363.47 190.82 363.229 191.114 362.918 191.32C362.608 191.526 362.243 191.634 361.87 191.63H319.87C318.87 191.632 317.909 191.244 317.19 190.55L264.55 137.86ZM397.14 150.56L435.01 188.38C435.274 188.648 435.453 188.988 435.524 189.358C435.596 189.728 435.556 190.11 435.411 190.457C435.266 190.805 435.021 191.101 434.708 191.31C434.394 191.518 434.026 191.63 433.65 191.63H391.65C391.162 191.632 390.678 191.538 390.227 191.353C389.776 191.167 389.365 190.895 389.02 190.55L339.11 140.64C338.968 140.501 338.874 140.32 338.841 140.124C338.809 139.928 338.839 139.727 338.928 139.549C339.017 139.371 339.16 139.226 339.336 139.135C339.513 139.043 339.714 139.01 339.91 139.04C358.885 141.645 377.698 145.318 396.26 150.04C396.603 150.112 396.914 150.291 397.15 150.55M461.41 191.1L432.62 162.36C432.509 162.197 432.448 162.006 432.445 161.809C432.442 161.611 432.498 161.418 432.604 161.252C432.711 161.087 432.865 160.956 433.045 160.878C433.226 160.799 433.426 160.775 433.62 160.81C458.603 168.909 483.034 178.619 506.76 189.88C506.949 189.975 507.1 190.133 507.186 190.326C507.273 190.52 507.29 190.737 507.234 190.942C507.179 191.146 507.055 191.325 506.883 191.449C506.711 191.573 506.501 191.633 506.29 191.62H462.69C462.215 191.619 461.759 191.432 461.42 191.1M462.69 208.36H506.4C506.611 208.347 506.821 208.407 506.993 208.531C507.165 208.655 507.289 208.834 507.344 209.038C507.4 209.243 507.383 209.46 507.296 209.654C507.21 209.847 507.059 210.005 506.87 210.1C483.129 221.341 458.7 231.067 433.73 239.22C433.536 239.255 433.336 239.231 433.155 239.152C432.975 239.074 432.821 238.943 432.714 238.778C432.608 238.612 432.552 238.419 432.555 238.221C432.558 238.024 432.619 237.833 432.73 237.67L461.56 208.83C461.723 208.673 461.916 208.55 462.127 208.469C462.338 208.389 462.564 208.351 462.79 208.36M391.79 208.36H433.79C434.167 208.358 434.536 208.47 434.85 208.68C435.163 208.89 435.407 209.189 435.549 209.539C435.691 209.888 435.725 210.272 435.647 210.642C435.568 211.011 435.381 211.348 435.11 211.61L397.29 249.47C397.047 249.712 396.737 249.876 396.4 249.94C378.784 254.412 360.946 257.961 342.96 260.57C342.558 260.625 342.149 260.553 341.79 260.364C341.431 260.174 341.14 259.877 340.959 259.514C340.778 259.15 340.716 258.739 340.78 258.339C340.845 257.938 341.034 257.568 341.32 257.28L389.15 209.44C389.488 209.097 389.891 208.824 390.336 208.639C390.781 208.453 391.258 208.359 391.74 208.36M237.84 263.36C225.14 262.18 212.72 260.49 200.63 258.42C200.296 258.357 199.987 258.203 199.735 257.976C199.483 257.749 199.298 257.456 199.201 257.131C199.104 256.806 199.098 256.46 199.184 256.132C199.271 255.804 199.446 255.506 199.69 255.27L245.5 209.4C246.203 208.705 247.152 208.317 248.14 208.32H290.33C290.693 208.324 291.047 208.436 291.347 208.641C291.646 208.846 291.879 209.135 292.015 209.472C292.15 209.809 292.183 210.178 292.11 210.534C292.036 210.889 291.859 211.215 291.6 211.47L240.85 262.23C240.46 262.622 239.99 262.925 239.473 263.12C238.955 263.315 238.402 263.397 237.85 263.36M317.34 209.36C318.04 208.667 318.985 208.279 319.97 208.28H362.12C362.483 208.284 362.837 208.394 363.139 208.597C363.44 208.8 363.675 209.086 363.816 209.421C363.956 209.756 363.995 210.125 363.928 210.482C363.862 210.839 363.692 211.168 363.44 211.43L312 263C311.364 263.648 310.507 264.034 309.6 264.08C299.34 264.84 289 265.35 278.46 265.35L265.9 265.12C265.562 265.066 265.245 264.919 264.985 264.695C264.726 264.471 264.533 264.18 264.43 263.853C264.326 263.526 264.315 263.177 264.398 262.845C264.481 262.512 264.655 262.209 264.9 261.97L317.34 209.36ZM178 146.8L219.73 188.48C219.982 188.742 220.152 189.071 220.218 189.428C220.285 189.785 220.246 190.154 220.106 190.489C219.965 190.824 219.73 191.11 219.429 191.313C219.127 191.516 218.773 191.626 218.41 191.63H176.58C175.592 191.633 174.643 191.245 173.94 190.55L141.44 158C141.212 157.771 141.047 157.487 140.962 157.175C140.878 156.863 140.875 156.535 140.956 156.222C141.037 155.909 141.198 155.623 141.423 155.391C141.648 155.159 141.93 154.99 142.24 154.9C153.15 151.75 164.53 148.83 176.24 146.24C176.55 146.168 176.874 146.178 177.179 146.269C177.484 146.36 177.76 146.529 177.98 146.76M739.7 147.76C736.016 141.219 731.287 135.325 725.7 130.31C692.91 100.77 636.7 108.48 617.23 151.19C613.752 159.038 612.31 167.637 613.04 176.19C615.87 211.8 640.04 232.87 667.65 231.83C674.464 231.593 681.154 229.946 687.299 226.992C693.443 224.039 698.909 219.843 703.35 214.67C708.141 209.132 711.344 202.401 712.62 195.19C713.842 188.339 713.324 181.29 711.113 174.691C708.903 168.092 705.072 162.154 699.97 157.42C693.228 151.18 684.292 147.861 675.111 148.187C665.931 148.513 657.252 152.458 650.97 159.16C646.208 164.066 643.527 170.623 643.49 177.46C643.49 188.8 650.69 198.53 660.99 202.72L660.94 202.58C664.358 204.083 668.08 204.768 671.81 204.58C678.225 204.248 684.253 201.407 688.591 196.67C692.93 191.933 695.232 185.68 695 179.26C696.635 183.528 697.033 188.171 696.149 192.655C695.264 197.139 693.133 201.282 690 204.61C684.055 211.012 675.815 214.796 667.085 215.131C658.355 215.467 649.848 212.327 643.43 206.4C635.019 198.597 630.047 187.776 629.606 176.311C629.166 164.846 633.292 153.675 641.08 145.25C659.52 125.31 693.9 124.18 714.55 142.8C718.778 146.597 722.361 151.055 725.16 156C735.94 175.1 734.76 201.91 722.3 221.29C712.94 235.87 697.98 245.89 680.2 249.56C659.55 253.79 637.06 249.09 618.63 236.62C618.35 236.43 607.06 228.77 563.78 199.62C562.94 199.06 562 198.54 561.1 198.02C560 88.66 470.74 0 361.15 0C320.489 0.0101864 280.798 12.4205 247.373 35.5749C213.949 58.7293 188.38 91.5265 174.08 129.59C87.82 148.26 22.39 184.15 2.26 196.05C1.5714 196.454 1.0004 197.031 0.60365 197.724C0.206896 198.417 -0.00183105 199.202 -0.00183105 200C-0.00183105 200.798 0.206896 201.583 0.60365 202.276C1.0004 202.969 1.5714 203.546 2.26 203.95C22.39 215.85 87.77 251.74 173.99 270.41C188.377 308.433 213.979 341.187 247.404 364.33C280.828 387.473 320.496 399.913 361.15 400C465.57 400 551.36 319.57 560.25 217.45C599.15 243.7 609.25 250.52 609.25 250.52C625.714 261.697 645.131 267.722 665.03 267.83C671.247 267.858 677.449 267.245 683.54 266C705.79 261.43 724.54 248.78 736.36 230.44C752.3 205.65 753.67 172.49 739.75 147.84" fill="#1F2421"/>
</svg>
